<svg width="340" height="37" viewBox="0 0 340 37" fill="none" xmlns="http://www.w3.org/2000/svg">
<path d="M0.0560004 3.792H11.048L18.176 20.976H17.576L24.704 3.792H35.264V36H27.536V13.08H28.592L20.312 33H15.344L7.112 13.128H7.736V36H0.0560004V3.792ZM53.4954 36.768C51.3034 36.768 49.2874 36.32 47.4474 35.424C45.6234 34.512 44.1594 33.136 43.0554 31.296C41.9674 29.44 41.4234 27.088 41.4234 24.24C41.4234 21.296 41.9674 18.896 43.0554 17.04C44.1594 15.184 45.6234 13.816 47.4474 12.936C49.2874 12.04 51.3034 11.592 53.4954 11.592C55.6394 11.592 57.6154 12.04 59.4234 12.936C61.2314 13.816 62.6794 15.184 63.7674 17.04C64.8714 18.896 65.4234 21.296 65.4234 24.24C65.4234 27.088 64.8714 29.44 63.7674 31.296C62.6794 33.136 61.2314 34.512 59.4234 35.424C57.6154 36.32 55.6394 36.768 53.4954 36.768ZM53.2074 30.072C53.9434 30.072 54.6554 29.88 55.3434 29.496C56.0474 29.112 56.6314 28.496 57.0954 27.648C57.5594 26.784 57.7914 25.648 57.7914 24.24C57.7914 22.048 57.3994 20.504 56.6154 19.608C55.8314 18.712 54.8874 18.264 53.7834 18.264C53.0474 18.264 52.3114 18.456 51.5754 18.84C50.8554 19.224 50.2554 19.856 49.7754 20.736C49.3114 21.6 49.0794 22.768 49.0794 24.24C49.0794 26.368 49.4874 27.872 50.3034 28.752C51.1354 29.632 52.1034 30.072 53.2074 30.072ZM86.9953 12.216H94.6753V36H86.9953V12.216ZM71.3233 12.216H79.0033V26.52C79.0033 27.608 79.2753 28.416 79.8193 28.944C80.3793 29.456 81.0913 29.712 81.9553 29.712C82.7393 29.712 83.5153 29.52 84.2833 29.136C85.0673 28.752 85.7153 28.096 86.2273 27.168C86.7393 26.24 86.9953 24.952 86.9953 23.304H88.6753C88.6753 26.44 88.3153 28.976 87.5953 30.912C86.8753 32.832 85.8913 34.232 84.6433 35.112C83.4113 35.992 82.0113 36.432 80.4433 36.432C78.8593 36.432 77.3713 36.16 75.9793 35.616C74.5873 35.072 73.4593 34.144 72.5953 32.832C71.7473 31.52 71.3233 29.712 71.3233 27.408V12.216ZM118.407 36V22.224C118.407 20.976 118.103 20.056 117.495 19.464C116.887 18.856 116.151 18.552 115.287 18.552C114.407 18.552 113.599 18.8 112.863 19.296C112.127 19.792 111.535 20.592 111.087 21.696C110.655 22.784 110.439 24.232 110.439 26.04H108.111C108.111 22.648 108.511 19.888 109.311 17.76C110.127 15.632 111.231 14.072 112.623 13.08C114.031 12.088 115.623 11.592 117.399 11.592C119.431 11.592 121.087 12.048 122.367 12.96C123.663 13.872 124.615 15.128 125.223 16.728C125.831 18.328 126.135 20.16 126.135 22.224V36H118.407ZM102.759 36V12.36H109.527L110.439 16.272V36H102.759ZM142.386 36.768C140.882 36.768 139.474 36.496 138.162 35.952C136.866 35.408 135.818 34.56 135.018 33.408C134.234 32.24 133.842 30.744 133.842 28.92V6.384H141.57V28.632C141.57 30.072 142.282 30.792 143.706 30.792C144.154 30.792 144.626 30.744 145.122 30.648C145.634 30.536 146.226 30.36 146.898 30.12L148.026 35.472C147.05 35.824 146.114 36.128 145.218 36.384C144.338 36.64 143.394 36.768 142.386 36.768ZM131.034 17.328V12.36H146.946V17.328H131.034ZM169.029 36L168.045 29.688V20.832C168.045 19.648 167.829 18.728 167.397 18.072C166.965 17.416 166.045 17.088 164.637 17.088C163.805 17.088 163.125 17.216 162.597 17.472C162.085 17.712 161.701 18.04 161.445 18.456C161.205 18.856 161.085 19.296 161.085 19.776H152.781C152.781 17.92 153.221 16.392 154.101 15.192C154.981 13.976 156.301 13.072 158.061 12.48C159.821 11.888 162.013 11.592 164.637 11.592C166.925 11.592 168.893 11.944 170.541 12.648C172.205 13.352 173.485 14.408 174.381 15.816C175.277 17.224 175.725 18.992 175.725 21.12V36H169.029ZM161.589 36.768C159.477 36.768 157.693 36.416 156.237 35.712C154.797 34.992 153.709 34.024 152.973 32.808C152.237 31.592 151.869 30.248 151.869 28.776C151.869 27.384 152.253 26.184 153.021 25.176C153.789 24.152 154.925 23.36 156.429 22.8C157.949 22.24 159.813 21.96 162.021 21.96C163.365 21.96 164.549 22.032 165.573 22.176C166.613 22.32 167.677 22.496 168.765 22.704V27.024C167.965 26.848 167.133 26.712 166.269 26.616C165.421 26.52 164.589 26.472 163.773 26.472C162.637 26.472 161.733 26.656 161.061 27.024C160.405 27.376 160.077 27.96 160.077 28.776C160.077 29.368 160.373 29.888 160.965 30.336C161.557 30.768 162.493 30.984 163.773 30.984C164.861 30.984 165.717 30.768 166.341 30.336C166.965 29.904 167.405 29.36 167.661 28.704C167.917 28.048 168.045 27.4 168.045 26.76H169.845C169.845 28.584 169.557 30.256 168.981 31.776C168.405 33.296 167.509 34.512 166.293 35.424C165.077 36.32 163.509 36.768 161.589 36.768ZM187.921 9.312C186.465 9.312 185.337 8.944 184.537 8.208C183.753 7.456 183.361 6.4 183.361 5.04C183.361 3.712 183.753 2.656 184.537 1.872C185.337 1.072 186.465 0.671997 187.921 0.671997C189.329 0.671997 190.441 1.072 191.257 1.872C192.073 2.656 192.481 3.712 192.481 5.04C192.481 6.4 192.073 7.456 191.257 8.208C190.441 8.944 189.329 9.312 187.921 9.312ZM184.081 36V12.216H191.761V36H184.081ZM216.235 36V22.224C216.235 20.976 215.931 20.056 215.323 19.464C214.715 18.856 213.979 18.552 213.115 18.552C212.235 18.552 211.427 18.8 210.691 19.296C209.955 19.792 209.363 20.592 208.915 21.696C208.483 22.784 208.267 24.232 208.267 26.04H205.939C205.939 22.648 206.339 19.888 207.139 17.76C207.955 15.632 209.059 14.072 210.451 13.08C211.859 12.088 213.451 11.592 215.227 11.592C217.259 11.592 218.915 12.048 220.195 12.96C221.491 13.872 222.443 15.128 223.051 16.728C223.659 18.328 223.963 20.16 223.963 22.224V36H216.235ZM200.587 36V12.36H207.355L208.267 16.272V36H200.587Z" fill="black"/>
<path d="M239.158 3.792V29.28H251.326V36H231.478V3.792H239.158ZM272.06 36L271.076 29.688V20.832C271.076 19.648 270.86 18.728 270.428 18.072C269.996 17.416 269.076 17.088 267.668 17.088C266.836 17.088 266.156 17.216 265.628 17.472C265.116 17.712 264.732 18.04 264.476 18.456C264.236 18.856 264.116 19.296 264.116 19.776H255.812C255.812 17.92 256.252 16.392 257.132 15.192C258.012 13.976 259.332 13.072 261.092 12.48C262.852 11.888 265.044 11.592 267.668 11.592C269.956 11.592 271.924 11.944 273.572 12.648C275.236 13.352 276.516 14.408 277.412 15.816C278.308 17.224 278.756 18.992 278.756 21.12V36H272.06ZM264.62 36.768C262.508 36.768 260.724 36.416 259.268 35.712C257.828 34.992 256.74 34.024 256.004 32.808C255.268 31.592 254.9 30.248 254.9 28.776C254.9 27.384 255.284 26.184 256.052 25.176C256.82 24.152 257.956 23.36 259.46 22.8C260.98 22.24 262.844 21.96 265.052 21.96C266.396 21.96 267.58 22.032 268.604 22.176C269.644 22.32 270.708 22.496 271.796 22.704V27.024C270.996 26.848 270.164 26.712 269.3 26.616C268.452 26.52 267.62 26.472 266.804 26.472C265.668 26.472 264.764 26.656 264.092 27.024C263.436 27.376 263.108 27.96 263.108 28.776C263.108 29.368 263.404 29.888 263.996 30.336C264.588 30.768 265.524 30.984 266.804 30.984C267.892 30.984 268.748 30.768 269.372 30.336C269.996 29.904 270.436 29.36 270.692 28.704C270.948 28.048 271.076 27.4 271.076 26.76H272.876C272.876 28.584 272.588 30.256 272.012 31.776C271.436 33.296 270.54 34.512 269.324 35.424C268.108 36.32 266.54 36.768 264.62 36.768ZM302.017 36V22.224C302.017 20.976 301.713 20.056 301.105 19.464C300.497 18.856 299.761 18.552 298.897 18.552C298.017 18.552 297.209 18.8 296.473 19.296C295.737 19.792 295.145 20.592 294.697 21.696C294.265 22.784 294.049 24.232 294.049 26.04H291.721C291.721 22.648 292.121 19.888 292.921 17.76C293.737 15.632 294.841 14.072 296.233 13.08C297.641 12.088 299.233 11.592 301.009 11.592C303.041 11.592 304.697 12.048 305.977 12.96C307.273 13.872 308.225 15.128 308.833 16.728C309.441 18.328 309.745 20.16 309.745 22.224V36H302.017ZM286.369 36V12.36H293.137L294.049 16.272V36H286.369ZM326.259 36.768C324.211 36.768 322.347 36.24 320.667 35.184C319.003 34.112 317.683 32.624 316.707 30.72C315.731 28.8 315.243 26.576 315.243 24.048C315.243 21.552 315.707 19.376 316.635 17.52C317.563 15.648 318.819 14.192 320.403 13.152C321.987 12.112 323.763 11.592 325.731 11.592C327.507 11.592 329.019 12.016 330.267 12.864C331.515 13.696 332.459 14.96 333.099 16.656C333.755 18.336 334.083 20.448 334.083 22.992H331.947C331.947 22.096 331.747 21.32 331.347 20.664C330.963 19.992 330.451 19.472 329.811 19.104C329.171 18.736 328.459 18.552 327.675 18.552C326.667 18.552 325.803 18.792 325.083 19.272C324.379 19.752 323.843 20.408 323.475 21.24C323.107 22.072 322.923 23.008 322.923 24.048C322.923 25.136 323.107 26.112 323.475 26.976C323.859 27.84 324.403 28.52 325.107 29.016C325.811 29.512 326.635 29.76 327.579 29.76C328.331 29.76 329.035 29.552 329.691 29.136C330.363 28.704 330.907 28.136 331.323 27.432C331.739 26.728 331.947 25.96 331.947 25.128H334.083C334.083 27.8 333.715 30 332.979 31.728C332.259 33.44 331.299 34.712 330.099 35.544C328.915 36.36 327.635 36.768 326.259 36.768ZM333.459 36L331.947 29.832V2.88H339.723V36H333.459Z" fill="#B14343"/>
</svg>
